<?xml version="1.0" encoding="UTF-8"?>
<!-- Created with Inkscape (http://www.inkscape.org/) -->
<svg width="200" height="200" version="1.1" viewBox="0 0 52.917 52.917" xmlns="http://www.w3.org/2000/svg" xmlns:cc="http://creativecommons.org/ns#" xmlns:dc="http://purl.org/dc/elements/1.1/" xmlns:rdf="http://www.w3.org/1999/02/22-rdf-syntax-ns#">
 <metadata>
  <rdf:RDF>
   <cc:Work rdf:about="">
    <dc:format>image/svg+xml</dc:format>
    <dc:type rdf:resource="http://purl.org/dc/dcmitype/StillImage"/>
    <dc:title/>
   </cc:Work>
  </rdf:RDF>
 </metadata>
 <path d="m26.458 0.0015503c-14.614 0-26.458 11.846-26.458 26.459 0 14.613 11.845 26.458 26.458 26.458 14.612 0 26.457-11.846 26.457-26.458 0-14.614-11.845-26.459-26.457-26.459zm2.3771 10.8 4.8152 0.020154v5.362h-3.4933c-0.57384 0-1.3798 0.28697-1.3798 1.5064v3.251h4.9527l-0.56793 5.5191 5.16e-4 5.16e-4h-4.3848v15.638h-6.5015v-15.638h-3.0918v-5.5248h3.0918v-3.5745c0-2.5565 1.214-6.5598 6.5588-6.5598z" fill="#324581"/>
</svg>
