<svg width="12.951mm" height="12.951mm" version="1.1" viewBox="0 0 12.951 12.951" xmlns="http://www.w3.org/2000/svg">
    <g transform="translate(-62.316 -149.16)">
        <path d="m75.267 161.4c0 0.39475-0.31997 0.71472-0.71473 0.71472h-3.3002v-5.0151h1.6835l0.25188-1.9547h-1.9353v-1.2478c0-0.56586 0.15699-0.95144 0.96873-0.95144l1.035-7.1e-4v-1.748c-0.17921-0.02399-0.7934-0.07691-1.5085-0.07691-1.4922 0-2.5139 0.91087-2.5139 2.5834v1.4414h-1.6877v1.9547h1.6877v5.0151h-6.2025c-0.39476 0-0.71473-0.31997-0.71473-0.71472v-11.521c0-0.39475 0.31997-0.71472 0.71473-0.71472h11.521c0.39476 0 0.71473 0.31997 0.71473 0.71472v11.521" fill="#8a95a8"/>
    </g>
</svg>
