<svg width="12.934mm" height="12.934mm" version="1.1" viewBox="0 0 12.934 12.934" xmlns="http://www.w3.org/2000/svg">
    <g transform="translate(69.967 -53.164)">
        <path d="m-58.247 64.481c0 0.22296-0.17992 0.40393-0.40217 0.40393h-9.7014c-0.22331 0-0.40428-0.18098-0.40428-0.40393v-6.0628h1.6168c-0.21061 0.30304-0.28187 0.86854-0.28187 1.2273 0 2.1646 1.7646 3.9257 3.9342 3.9257 2.1696 0 3.9335-1.7611 3.9335-3.9257 0-0.35878-0.049389-0.91581-0.31044-1.2273h1.6157zm-5.2388-7.3166c1.3723 0 2.4871 1.1109 2.4871 2.4811 0 1.3709-1.1148 2.4818-2.4871 2.4818-1.3723 0-2.4871-1.1109-2.4871-2.4818 0-1.3702 1.1148-2.4811 2.4871-2.4811zm2.8152-1.9798c0-0.22296 0.17992-0.40428 0.40217-0.40428h1.2136c0.22225 0 0.40569 0.18133 0.40569 0.40428v1.2125c0 0.22331-0.18344 0.40428-0.40569 0.40428h-1.2136c-0.22225 0-0.40217-0.18098-0.40217-0.40428zm2.099-2.0211h-9.8584c-0.84914 0-1.5374 0.68686-1.5374 1.5339v9.8661c0 0.84737 0.68827 1.5339 1.5374 1.5339h9.8584c0.8502 0 1.5381-0.6865 1.5381-1.5339v-9.8661c0-0.84702-0.68792-1.5339-1.5381-1.5339" fill="#8a95a8"/>
    </g>
</svg>
