<?xml version="1.0" encoding="UTF-8"?>
<!-- Created with Inkscape (http://www.inkscape.org/) -->
<svg width="200" height="200" version="1.1" viewBox="0 0 52.916 52.917" xmlns="http://www.w3.org/2000/svg" xmlns:cc="http://creativecommons.org/ns#" xmlns:dc="http://purl.org/dc/elements/1.1/" xmlns:rdf="http://www.w3.org/1999/02/22-rdf-syntax-ns#">
 <metadata>
  <rdf:RDF>
   <cc:Work rdf:about="">
    <dc:format>image/svg+xml</dc:format>
    <dc:type rdf:resource="http://purl.org/dc/dcmitype/StillImage"/>
    <dc:title/>
   </cc:Work>
  </rdf:RDF>
 </metadata>
 <path d="m26.458 0c-14.613 0-26.458 11.845-26.458 26.458 0 14.613 11.846 26.458 26.458 26.458s26.458-11.845 26.458-26.458c0-14.612-11.846-26.458-26.458-26.458zm0.00155 13.049c3.642 0 4.0986 0.015874 5.5289 0.081133 1.4273 0.065099 2.4022 0.29176 3.2551 0.62322 0.88179 0.34269 1.6295 0.80121 2.3751 1.5467 0.74547 0.74547 1.204 1.4933 1.5467 2.3751 0.33146 0.85294 0.55812 1.8278 0.62322 3.2551 0.06526 1.4304 0.080616 1.8871 0.080616 5.5289 0 3.642-0.015356 4.0986-0.080616 5.5289-0.065099 1.4273-0.29176 2.4017-0.62322 3.2546-0.34269 0.88179-0.80121 1.6295-1.5467 2.3751-0.74553 0.74547-1.4933 1.204-2.3751 1.5467-0.85294 0.33146-1.8278 0.55812-3.2551 0.62322-1.4305 0.065247-1.8871 0.081133-5.5289 0.081133-3.642 0-4.0986-0.015883-5.5289-0.081133-1.4273-0.065098-2.4022-0.29176-3.2551-0.62322-0.88179-0.34269-1.6295-0.80121-2.3751-1.5467-0.74547-0.74552-1.204-1.4933-1.5467-2.3751-0.33149-0.85294-0.55808-1.8273-0.62322-3.2546-0.065246-1.4305-0.080616-1.8871-0.080616-5.5289 0-3.642 0.015368-4.0986 0.080616-5.5289 0.065153-1.4273 0.29174-2.4022 0.62322-3.2551 0.34269-0.88179 0.80121-1.6296 1.5467-2.3751s1.4933-1.204 2.3751-1.5467c0.85294-0.33146 1.8278-0.55812 3.2551-0.62322 1.4304-0.065259 1.8871-0.081133 5.5289-0.081133zm0 2.4164c-3.5806 0-4.0048 0.013518-5.4188 0.078032-1.3074 0.059616-2.0173 0.27835-2.4898 0.46199-0.62592 0.24326-1.0728 0.53378-1.542 1.003-0.46921 0.46921-0.7598 0.9156-1.003 1.5415-0.18364 0.47251-0.40182 1.1829-0.46147 2.4903-0.064519 1.4141-0.078548 1.8378-0.078548 5.4183 0 3.5806 0.014029 4.0048 0.078548 5.4188 0.059654 1.3074 0.27783 2.0173 0.46147 2.4898 0.24326 0.62592 0.53382 1.0728 1.003 1.542 0.46921 0.46927 0.91612 0.7598 1.542 1.003 0.47251 0.18364 1.1824 0.40238 2.4898 0.46199 1.4139 0.064524 1.8381 0.078031 5.4188 0.078031 3.5809 0 4.0051-0.013507 5.4188-0.078031 1.3074-0.059611 2.0173-0.27835 2.4898-0.46199 0.62592-0.24326 1.0728-0.53378 1.542-1.003 0.46927-0.46922 0.75979-0.91612 1.003-1.542 0.18364-0.47251 0.40186-1.1824 0.46148-2.4898 0.064514-1.4141 0.078032-1.8384 0.078032-5.4188 0-3.5806-0.013518-4.0043-0.078032-5.4183-0.059616-1.3074-0.27784-2.0178-0.46148-2.4903-0.24326-0.62592-0.53378-1.0723-1.003-1.5415-0.46921-0.46921-0.91612-0.75979-1.542-1.003-0.47251-0.18364-1.1824-0.40238-2.4898-0.46199-1.4141-0.064514-1.8384-0.078032-5.4188-0.078032zm7.1583 2.2257c0.88871 0 1.6092 0.7205 1.6092 1.6092 0 0.88871-0.7205 1.6092-1.6092 1.6092-0.88866 0-1.6092-0.7205-1.6092-1.6092 0-0.88871 0.72056-1.6092 1.6092-1.6092zm-7.1583 1.8816c3.8028 0 6.8854 3.0824 6.8854 6.8854 0 3.8028-3.0824 6.8859-6.8854 6.8859-3.8028 0-6.8859-3.0829-6.8859-6.8859 0-3.8028 3.0829-6.8854 6.8859-6.8854zm0 2.4159c-2.4687 0-4.47 2.0014-4.47 4.47 0 2.4686 2.0014 4.4695 4.47 4.4695 2.4686 0 4.4695-2.0009 4.4695-4.4695 0-2.4687-2.0009-4.47-4.4695-4.47z" fill="#4259ab"/>
</svg>
