<svg width="52.917mm" height="52.917mm" version="1.1" viewBox="0 0 52.917 52.917" xmlns="http://www.w3.org/2000/svg">
 <g transform="translate(-83.334 -96.493)">
  <path d="m109.79 96.493c-14.612 0-26.459 11.846-26.459 26.459 0 14.612 11.846 26.458 26.459 26.458 14.612 0 26.458-11.846 26.458-26.458 0-14.613-11.846-26.459-26.458-26.459zm-9.8199 11.887c2.0887 0 3.3723 1.3703 3.4124 3.1714 0 1.763-1.3234 3.1734-3.4529 3.1734h-0.039523c-2.0479 0-3.3748-1.4104-3.3748-3.1734 0-1.8011 1.3655-3.1714 3.4548-3.1714zm17.995 8.4192c4.0175 0 7.0292 2.6251 7.0292 8.264v10.53h-6.1048v-9.8237c0-2.4677-0.88195-4.1527-3.0924-4.1527-1.6873 0-2.6897 1.1342-3.1319 2.2325-0.16057 0.39287-0.20147 0.93822-0.20147 1.4884v10.256h-6.1067s0.0816-16.64 0-18.362h6.1067v2.6017c0.81139-1.249 2.2577-3.0336 5.5013-3.0336zm-5.5013 3.0336-0.04145 0.06073h0.04145zm-15.586-2.6017h6.1038v18.362h-6.1038z" fill="#245687"/>
 </g>
</svg>
