<svg width="13.014mm" height="11.831mm" version="1.1" viewBox="0 0 13.014 11.831" xmlns="http://www.w3.org/2000/svg">
    <g transform="translate(-68.332 -161.82)">
        <g transform="matrix(.35278 0 0 -.35278 -190.48 498.15)" fill="#8a95a8">
            <path d="m734.56 919.84h7.191v22.782h-7.191v-22.782"/>
            <path d="m761.4 942.84c-4.119 0-6.7-2.231-7.177-3.794v3.575h-8.077c0.104-1.898 0-22.782 0-22.782h8.077v12.329c0 0.684-0.033 1.369 0.176 1.861 0.555 1.37 1.748 2.792 3.893 2.792 2.804 0 4.08-2.107 4.08-5.193v-11.789h8.153v12.668c0 7.056-4.015 10.333-9.125 10.333"/>
            <path d="m738.02 953.38c-2.655 0-4.392-1.705-4.392-3.955 0-2.208 1.687-3.949 4.29-3.949h0.052c2.703 0 4.386 1.748 4.386 3.956-0.052 2.248-1.683 3.948-4.336 3.948"/>
        </g>
    </g>
</svg>
