<svg width="13.213mm" height="11.011mm" version="1.1" viewBox="0 0 13.213 11.011" xmlns="http://www.w3.org/2000/svg">
    <g transform="translate(-122.66 -98.727)">
        <path d="m135.51 98.931c-0.52423 0.31785-1.1035 0.54928-1.7226 0.67345-0.49318-0.5401-1.198-0.87736-1.9784-0.87736-1.4958 0-2.7097 1.245-2.7097 2.7795 0 0.21802 0.02328 0.42968 0.06985 0.63323-2.2528-0.11606-4.2499-1.2217-5.5876-2.9051-0.23354 0.41204-0.36689 0.88971-0.36689 1.3988 0 0.96379 0.47837 1.8147 1.2058 2.3135-0.44344-0.01341-0.86219-0.14005-1.2284-0.34678v0.03422c0 1.3473 0.9345 2.4712 2.1756 2.7256-0.22755 0.06526-0.46708 0.09772-0.71438 0.09772-0.17462 0-0.34502-0.01658-0.51047-0.04939 0.34537 1.1038 1.3455 1.9078 2.5322 1.9293-0.92745 0.74613-2.0969 1.1906-3.3666 1.1906-0.21872 0-0.43497-0.0127-0.64699-0.0381 1.1998 0.7874 2.6254 1.2478 4.1554 1.2478 4.9869 0 7.7128-4.2351 7.7128-7.9082 0-0.121-0.00247-0.242-0.00706-0.36054 0.52987-0.39193 0.98954-0.88088 1.3518-1.4386-0.48543 0.22119-1.0082 0.37077-1.5565 0.43744 0.55986-0.3436 0.98954-0.88829 1.192-1.5371" fill="#8a95a8"/>
    </g>
</svg>
