<svg width="200" height="200" version="1.1" viewBox="0 0 52.917 52.917" xmlns="http://www.w3.org/2000/svg">
 <g transform="translate(3.6003 -125.98)">
  <path d="m22.858 125.98c-14.613 0-26.458 11.846-26.458 26.459 0 14.613 11.846 26.458 26.458 26.458 14.613 0 26.458-11.845 26.458-26.458 0-14.612-11.846-26.459-26.458-26.459zm6.2813 13.187c1.9282 0 3.6701 0.8136 4.8922 2.1159 1.5261-0.30075 2.9606-0.85825 4.255-1.6262-0.50146 1.5655-1.5636 2.8782-2.9469 3.7074 1.355-0.16124 2.6475-0.5225 3.8492-1.0555-0.89828 1.3438-2.0345 2.5243-3.344 3.4693 0.013162 0.28691 0.020245 0.5764 0.020245 0.86661 0 8.8562-6.7405 19.066-19.066 19.066-3.7839 0-7.3066-1.1096-10.271-3.0114 0.52317 0.06251 1.057 0.09351 1.5973 0.09351 3.1403 0 6.0289-1.0709 8.323-2.8687-2.933-0.05397-5.4072-1.9909-6.2601-4.6521 0.40867 0.07765 0.82853 0.11953 1.2609 0.11953 0.61069 0 1.2037-0.08284 1.765-0.23618-3.0647-0.61594-5.3752-3.3225-5.3752-6.5694l9.672e-4 -0.08482c0.90288 0.50276 1.9369 0.80378 3.0346 0.83864-1.7972-1.2016-2.9806-3.2538-2.9806-5.5775 0-1.228 0.32997-2.38 0.9071-3.369 3.3049 4.0544 8.2426 6.7226 13.812 7.0022-0.11517-0.49092-0.17448-1.0027-0.17448-1.5279 0-3.7003 3.0009-6.7005 6.7006-6.7005z" fill="#4a9ec7"/>
 </g>
</svg>
